<?xml version="1.0" encoding="UTF-8"?>
<svg width="14px" height="14px" viewBox="0 0 14 14" version="1.1" xmlns="http://www.w3.org/2000/svg" xmlns:xlink="http://www.w3.org/1999/xlink">
    <!-- Generator: Sketch 50.2 (55047) - http://www.bohemiancoding.com/sketch -->
    <title>pushpin</title>
    <desc>Created with Sketch.</desc>
    <defs></defs>
    <g id="部署监控ip" stroke="none" stroke-width="1" fill="none" fill-rule="evenodd">
        <g id="1抗d部署查看页" transform="translate(-1177.000000, -794.000000)">
            <g id="pushpin" transform="translate(1176.000000, 793.000000)">
                <g id="Group-16" transform="translate(8.000000, 8.000000) scale(-1, 1) translate(-8.000000, -8.000000) ">
                    <g id="pushpin-o" transform="translate(1.015625, 1.015625)" fill="#1890FF" fill-rule="nonzero">
                        <path d="M3.7390625,1.603125 C3.753125,1.7078125 3.759375,1.815625 3.75625,1.9234375 L3.7390625,2.4890625 L4.18125,2.840625 L7.53125,5.496875 L8.0046875,5.871875 L8.5796875,5.684375 C9.0328125,5.5359375 9.50625,5.4609375 9.9859375,5.4609375 C10.4921875,5.4609375 10.990625,5.5453125 11.4671875,5.709375 C11.746875,5.80625 12.015625,5.93125 12.2703125,6.0796875 L9.625,8.7359375 L8.9546875,9.409375 L8.75625,9.609375 L6.1078125,12.26875 C5.834375,11.8078125 5.64375,11.296875 5.5484375,10.7671875 C5.4171875,10.0328125 5.4703125,9.2703125 5.7015625,8.5625 L5.8890625,7.9875 L5.5140625,7.5140625 L2.8578125,4.1640625 L2.50625,3.721875 L1.940625,3.7390625 C1.921875,3.7390625 1.9015625,3.740625 1.8828125,3.740625 C1.79375,3.740625 1.7046875,3.734375 1.6171875,3.721875 L3.7390625,1.603125 Z M3.9671875,0.0015625 C3.834375,0.0015625 3.7,0.0515625 3.596875,0.1546875 L0.16875,3.575 C-0.065625,3.809375 -0.028125,4.2 0.25,4.38125 C0.7453125,4.703125 1.3140625,4.8640625 1.8828125,4.8640625 C1.9140625,4.8640625 1.9453125,4.8640625 1.9765625,4.8625 L4.6328125,8.2125 C4.0515625,9.9921875 4.378125,12.0015625 5.6125,13.51875 C5.7203125,13.65 5.875,13.7171875 6.0296875,13.7171875 C6.1671875,13.7171875 6.303125,13.665625 6.409375,13.559375 L9.628125,10.328125 L13.115625,13.815625 C13.215625,13.915625 13.3453125,13.9640625 13.475,13.9640625 C13.6046875,13.9640625 13.7359375,13.9140625 13.834375,13.815625 C14.0328125,13.6171875 14.0328125,13.29375 13.834375,13.0953125 L10.3453125,9.6078125 L13.5640625,6.3765625 C13.7890625,6.1515625 13.7671875,5.78125 13.5203125,5.5796875 C12.4921875,4.75 11.2390625,4.334375 9.9875,4.334375 C9.39375,4.334375 8.8015625,4.428125 8.23125,4.6140625 L4.88125,1.9578125 C4.9,1.359375 4.740625,0.7578125 4.403125,0.2375 C4.3015625,0.0828125 4.1359375,0.0015625 3.9671875,0.0015625 Z" id="Shape"></path>
                    </g>
                    <rect id="Rectangle-19" x="0" y="0" width="16" height="16"></rect>
                </g>
            </g>
        </g>
    </g>
</svg>