<?xml version="1.0" encoding="UTF-8"?>
<svg width="15px" height="15px" viewBox="0 0 15 15" version="1.1" xmlns="http://www.w3.org/2000/svg" xmlns:xlink="http://www.w3.org/1999/xlink">
    <!-- Generator: Sketch 50.2 (55047) - http://www.bohemiancoding.com/sketch -->
    <title>Group 17</title>
    <desc>Created with Sketch.</desc>
    <defs></defs>
    <g id="部署监控ip" stroke="none" stroke-width="1" fill="none" fill-rule="evenodd">
        <g id="1抗d部署查看页" transform="translate(-1176.000000, -244.000000)">
            <g id="Group-17" transform="translate(1183.342105, 251.500000) scale(-1, 1) translate(-1183.342105, -251.500000) translate(1174.842105, 243.000000)">
                <g id="pushpin" transform="translate(1.069079, 1.069079)" fill="#1890FF" fill-rule="nonzero">
                    <path d="M14.5625,13.7861842 L10.8898026,10.1134868 L14.2779605,6.71217105 C14.5148026,6.47532895 14.4917763,6.08552632 14.2319079,5.87335526 C12.6365132,4.58552632 10.5296053,4.24671053 8.66447368,4.85690789 L5.13815789,2.06085526 C5.15789474,1.43092105 4.99013158,0.797697368 4.63486842,0.25 C4.44572368,-0.0427631579 4.03289474,-0.0822368421 3.78618421,0.162828947 L0.177631579,3.76315789 C-0.0690789474,4.00986842 -0.0296052632,4.42105263 0.263157895,4.61184211 C0.8125,4.96875 1.44901316,5.13815789 2.08059211,5.11842105 L4.87664474,8.64473684 C4.26480263,10.5180921 4.60855263,12.6332237 5.90789474,14.2302632 C6.12006579,14.4901316 6.50986842,14.5115132 6.74671053,14.2730263 L10.1348684,10.8717105 L13.8059211,14.5427632 C13.9111842,14.6480263 14.0476974,14.6990132 14.1842105,14.6990132 C14.3207237,14.6990132 14.4588816,14.6463816 14.5625,14.5427632 C14.7730263,14.3355263 14.7730263,13.9950658 14.5625,13.7861842 Z" id="Shape"></path>
                </g>
                <rect id="Rectangle-20" x="0" y="0" width="16.8421053" height="15.1578947"></rect>
            </g>
        </g>
    </g>
</svg>