<?xml version="1.0" encoding="UTF-8"?>
<svg width="17px" height="20px" viewBox="0 0 17 20" version="1.1" xmlns="http://www.w3.org/2000/svg" xmlns:xlink="http://www.w3.org/1999/xlink">
    <!-- Generator: Sketch 50.2 (55047) - http://www.bohemiancoding.com/sketch -->
    <title>监控 (1) copy</title>
    <desc>Created with Sketch.</desc>
    <defs></defs>
    <g id="部署监控ip" stroke="none" stroke-width="1" fill="none" fill-rule="evenodd">
        <g id="1抗d部署查看页" transform="translate(-566.000000, -853.000000)" fill="#1890FF" fill-rule="nonzero">
            <g id="Group-10" transform="translate(566.000000, 853.000000)">
                <g id="监控-(1)-copy">
                    <path d="M12.7272727,9.69585356 C12.7272727,7.3564373 10.8240464,5.45454545 8.48484848,5.45454545 C6.14565056,5.45454545 4.24242424,7.35866957 4.24242424,9.69585356 C4.24242424,12.0352698 6.14565056,13.9393939 8.48484848,13.9393939 C10.8240464,13.9371617 12.7272727,12.0352698 12.7272727,9.69585356 Z M5.51271716,9.69585356 C5.51271716,8.05736927 6.84718863,6.72247335 8.48484848,6.72247335 C10.1247214,6.72247335 11.4569798,8.05513701 11.4569798,9.69585356 C11.4569798,11.3365701 10.1247214,12.6692338 8.48484848,12.6692338 C6.84497558,12.6692338 5.51271716,11.3343379 5.51271716,9.69585356 Z" id="Shape"></path>
                    <path d="M13.662928,18.7297328 L12.1399055,18.7297328 L10.9998524,15.8761042 C14.1255903,14.722129 16.3636364,11.7186626 16.3636364,8.1941183 C16.3636364,3.67661858 12.6933294,0 8.18181818,0 C3.67030697,0 0,3.67661858 0,8.1941183 C0,11.6649894 2.17163518,14.6326736 5.22210744,15.8246673 C5.21989374,15.8291401 5.21546635,15.8336129 5.21325266,15.8380857 L4.05991736,18.7297328 L2.95306966,18.7297328 C2.60330579,18.7297328 2.31773908,19.0137538 2.31773908,19.3648664 C2.31773908,19.715979 2.60109209,20 2.95306966,20 L13.6607143,20 C14.0104782,20 14.2960449,19.715979 14.2960449,19.3648664 C14.2960449,19.0159902 14.0126919,18.7297328 13.662928,18.7297328 Z M1.27066116,8.1941183 C1.27066116,4.37884379 4.37204841,1.27250363 8.18181818,1.27250363 C11.9938017,1.27250363 15.0929752,4.3766074 15.0929752,8.1941183 C15.0929752,12.0093928 11.991588,15.115733 8.18181818,15.115733 C4.37204841,15.115733 1.27066116,12.0116292 1.27066116,8.1941183 Z M5.42798111,18.7297328 L6.3931523,16.3099631 C6.40864817,16.2697082 6.40643447,16.2294532 6.41528926,16.1914346 C6.98420897,16.3189086 7.57526564,16.3882366 8.18181818,16.3882366 C8.73302834,16.3882366 9.26874262,16.332327 9.78896104,16.2272168 C9.79560213,16.2562898 9.79338843,16.2875992 9.80445691,16.3166723 L10.7696281,18.7297328 L5.42798111,18.7297328 Z" id="Shape"></path>
                    <path d="M8.18181818,4.24242424 C8.41932842,4.24242424 8.65683866,4.14347557 8.82473382,3.97649969 C8.99262899,3.80746238 9.09090909,3.57245929 9.09090909,3.33333333 C9.09090909,3.09626881 8.99262899,2.85920429 8.82473382,2.69016698 C8.65683866,2.52112966 8.41932842,2.42424242 8.18181818,2.42424242 C7.94430794,2.42424242 7.70679771,2.52319109 7.53890254,2.69016698 C7.37100737,2.85920429 7.27272727,3.09420738 7.27272727,3.33333333 C7.27272727,3.57039786 7.37100737,3.80746238 7.53890254,3.97649969 C7.70679771,4.145537 7.94430794,4.24242424 8.18181818,4.24242424 Z" id="Shape"></path>
                </g>
            </g>
        </g>
    </g>
</svg>