<!-- Generated by IcoMoon.io -->
<svg version="1.1" xmlns="http://www.w3.org/2000/svg" width="32" height="32" viewBox="0 0 32 32">
<title>icon_comprehensive_situation_line</title>
<path d="M16 30.667c-8.1 0-14.667-6.567-14.667-14.667s6.567-14.667 14.667-14.667c8.1 0 14.667 6.567 14.667 14.667s-6.567 14.667-14.667 14.667zM26.667 13.333c-0.542-1.209-0.667 0.667-0.667 0.667s1.167 2.583 0.667 2.667c-0.5 0.083-2.75 0.958-2.667 2s0.167 3.25-0.667 4-2.042-0.459-2-1.333c0.041-0.875 0-3.333 0-3.333s-1.5-1.375-2-1.333c-0.5 0.041-2.959-0.542-2.667-1.333s0.125-2.25 2-2c0 0 0.458-1.542 1.333-1.333s0.958 1.333 1.333 1.333c0.375 0 1.625 0.291 2 0s1.333-0.75 1.333-1.333 0-2 0-2l-1.333 0.667c0 0-1.5 0.583-2 0s-2.667 0.667-2.667 0.667c0 0-0.542 1.083-0.667 0.667s-0.042-1.375 0-1.333c0.041 0.041 1.458-0.25 1.333-0.667s0.667-1.333 0.667-1.333l2-0.667h0.667c0 0 0.417-1.375 0.667-1.333 0.172 0.029 0.735-0.61 1.071-1.013-2.294-1.866-5.217-2.987-8.405-2.987-2.16 0-4.195 0.522-6 1.434v0.566l-2 1.333 0.667 0.667c0 0 1.333 0.083 1.333 0.667s-1.167 0.167-1.333 0.667c-0.167 0.5 1.041 0.625 1.333 0.667s2.041-1.042 2 0c-0.042 1.041-3.333 4-3.333 4s-2.042-0.167-2.667 0c-0.625 0.167 0.167 1.333 0 2s1.833 0.708 2.667 1.333c0.833 0.625 4.291 0.667 4.667 3.333s-2 3.333-2 3.333-0.5 3.958-1.333 4c-0.833 0.041-0.667-5.333-0.667-5.333-1.959-0.459-1.167-1.459-1.333-2.667s-0.625-2.042-0.667-2c-0.042 0.041-1.333-1.333-1.333-1.333s-1.167-0.209-1.333-1.333c-0.167-1.125-1.333-0.667-1.333-0.667h-0.391c-0.018 0.087-0.043 0.171-0.059 0.259-0.142 0.781-0.217 1.585-0.217 2.407 0 7.363 5.969 13.333 13.333 13.333s13.333-5.97 13.333-13.333c0-0.647-0.062-1.277-0.151-1.9-0.869 0.064-2.165 0.017-2.516-0.767zM14.667 8c0 0-0.459 0-0.667 0s0-2.667 0-2.667h3.333v1.333h-1.333l-1.333 1.333zM10.667 6.667v-0.667h1.333l0.667 1.333h-0.667l-1.333-0.667z"></path>
</svg>
